<svg xmlns="http://www.w3.org/2000/svg"
	 xml:space="preserve"
	 viewBox="0 0 64 64"
	 fill="var(--wp--preset--color--neutral-200)"
>
  <path
	  d="M0 0v64h8.1L8 62l.1-1.9v-.3l.2-1.8.1-.3.4-1.8v-.1l.5-1.7.1-.2.7-1.6.1-.3.8-1.6.1-.2.9-1.5.1-.1 1.1-1.4.2-.2 1.2-1.3.1-.1c.8-.9 1.8-1.7 2.7-2.5l.1-.1 1.5-1.1.1-.1 3.3-1.8h.1l1.7-.7.2-.1 1.8-.5A14 14 0 0 1 18 26c0-7.7 6.3-14 14-14s14 6.3 14 14a14 14 0 0 1-8.2 12.7l1.8.5.2.1 1.7.7h.1c1.2.5 2.3 1.1 3.3 1.8l.1.1 1.5 1.1.1.1c1 .8 1.9 1.6 2.7 2.5l.1.1 1.2 1.3.2.2 1.1 1.4.1.1.9 1.5.1.2.8 1.6.1.3.7 1.6.1.2.5 1.7v.1l.4 1.8.1.3.2 1.8v.3L56 62l-.1 2H64V0H0z"/>
</svg>